<svg viewBox="0 0 50 50" xmlns="http://www.w3.org/2000/svg"><path d="M45 1H5C2.8 1 1 2.8 1 5v40c0 2.2 1.8 4 4 4h40c2.2 0 4-1.8 4-4V5c0-2.2-1.8-4-4-4z" fill="#000"/><g fill="#FFF"><path d="M10 25c0 5.9 3.5 11.1 8.5 13.5l-7.2-19.6c-.8 1.9-1.3 3.9-1.3 6.1zM35.1 24.2c0-1.9-.7-3.1-1.2-4.1-.8-1.2-1.5-2.3-1.5-3.5 0-1.4 1-2.7 2.5-2.7h.2C32.5 11.5 28.9 10 25 10c-5.2 0-9.9 2.7-12.5 6.8h1c1.6 0 4-.2 4-.2.8 0 .9 1.1.1 1.2 0 0-.8.1-1.7.1l5.5 16.2 3.3-9.8-2.5-6.3c-.8 0-1.6-.1-1.6-.1-.8 0-.7-1.3.1-1.2 0 0 2.5.2 4 .2 1.6 0 4-.2 4-.2.8 0 .9 1.1.1 1.2 0 0-.8.1-1.7.1l5.4 16.1 1.5-5c.6-2.1 1.1-3.6 1.1-4.9z"/><path d="M25.3 26.3l-4.5 13.1c1.3.4 2.8.6 4.2.6 1.7 0 3.4-.3 5-.9 0-.1-.1-.1-.1-.2l-4.6-12.6zM38.2 17.8c.1.5.1 1 .1 1.5 0 1.5-.3 3.2-1.1 5.4L32.5 38C37 35.4 40 30.5 40 25c0-2.6-.7-5.1-1.8-7.2z"/></g></svg>